# MagicaVoxel @ Ephtracy

# group
o 

# material
mtllib Torch.mtl
usemtl palette

# normals
vn -1 0 0
vn 1 0 0
vn 0 0 1
vn 0 0 -1
vn 0 -1 0
vn 0 1 0

# texcoords
vt 0.0214844 0.5
vt 0.0449219 0.5
vt 0.0683594 0.5
vt 0.533203 0.5
vt 0.537109 0.5

# verts
v -0.3 0.2 0.7
v -0.3 0.2 -0.1
v -0.3 1.6 0.7
v -0.3 1.6 -0.1
v -0.3 1.7 0.7
v -0.3 1.7 -0.1
v -0.3 1.8 0.7
v -0.3 1.8 -0.1
v -0.3 1.9 0.7
v -0.3 1.9 -0.1
v -0.3 2.1 0.7
v -0.3 2.1 -0.1
v 0.5 0.2 0.7
v 0.5 0.2 -0.1
v 0.5 1.6 0.7
v 0.5 1.6 -0.1
v 0.5 1.7 0.7
v 0.5 1.7 -0.1
v 0.5 1.8 0.7
v 0.5 1.8 -0.1
v 0.5 1.9 0.7
v 0.5 1.9 -0.1
v 0.5 2.1 0.7
v 0.5 2.1 -0.1
v -0.3 0.2 0.7
v -0.3 1.6 0.7
v -0.3 1.7 0.7
v -0.3 1.8 0.7
v -0.3 1.9 0.7
v -0.3 2.1 0.7
v 0.5 0.2 0.7
v 0.5 1.6 0.7
v 0.5 1.7 0.7
v 0.5 1.8 0.7
v 0.5 1.9 0.7
v 0.5 2.1 0.7
v -0.3 0.2 -0.1
v -0.3 1.6 -0.1
v -0.3 1.7 -0.1
v -0.3 1.8 -0.1
v -0.3 1.9 -0.1
v -0.3 2.1 -0.1
v 0.5 0.2 -0.1
v 0.5 1.6 -0.1
v 0.5 1.7 -0.1
v 0.5 1.8 -0.1
v 0.5 1.9 -0.1
v 0.5 2.1 -0.1
v -0.3 0.2 0.7
v 0.5 0.2 0.7
v -0.3 0.2 -0.1
v 0.5 0.2 -0.1
v -0.3 2.1 0.7
v 0.5 2.1 0.7
v -0.3 2.1 -0.1
v 0.5 2.1 -0.1

# faces
f 3/5/1 2/5/1 1/5/1
f 4/5/1 2/5/1 3/5/1
f 5/4/1 4/4/1 3/4/1
f 6/4/1 4/4/1 5/4/1
f 7/1/1 6/1/1 5/1/1
f 8/1/1 6/1/1 7/1/1
f 9/2/1 8/2/1 7/2/1
f 10/2/1 8/2/1 9/2/1
f 11/3/1 10/3/1 9/3/1
f 12/3/1 10/3/1 11/3/1
f 13/5/2 14/5/2 15/5/2
f 15/5/2 14/5/2 16/5/2
f 15/4/2 16/4/2 17/4/2
f 17/4/2 16/4/2 18/4/2
f 17/1/2 18/1/2 19/1/2
f 19/1/2 18/1/2 20/1/2
f 19/2/2 20/2/2 21/2/2
f 21/2/2 20/2/2 22/2/2
f 21/3/2 22/3/2 23/3/2
f 23/3/2 22/3/2 24/3/2
f 31/5/3 26/5/3 25/5/3
f 32/4/3 27/4/3 26/4/3
f 32/5/3 26/5/3 31/5/3
f 33/1/3 28/1/3 27/1/3
f 33/4/3 27/4/3 32/4/3
f 34/2/3 29/2/3 28/2/3
f 34/1/3 28/1/3 33/1/3
f 35/3/3 30/3/3 29/3/3
f 35/2/3 29/2/3 34/2/3
f 36/3/3 30/3/3 35/3/3
f 37/5/4 38/5/4 43/5/4
f 38/4/4 39/4/4 44/4/4
f 43/5/4 38/5/4 44/5/4
f 39/1/4 40/1/4 45/1/4
f 44/4/4 39/4/4 45/4/4
f 40/2/4 41/2/4 46/2/4
f 45/1/4 40/1/4 46/1/4
f 41/3/4 42/3/4 47/3/4
f 46/2/4 41/2/4 47/2/4
f 47/3/4 42/3/4 48/3/4
f 51/5/5 50/5/5 49/5/5
f 52/5/5 50/5/5 51/5/5
f 53/3/6 54/3/6 55/3/6
f 55/3/6 54/3/6 56/3/6
